<svg version="1.2" xmlns="http://www.w3.org/2000/svg" viewBox="0 0 1000 1221" width="1000" height="1221">
	<title>New Project</title>
	<style>
		.s0 { fill: #4a0f00 } 
		.s1 { fill: #be7d5a } 
		.s2 { fill: #2ca4d1 } 
		.s3 { fill: #526a9b } 
		.s4 { fill: #4c74a4 } 
		.s5 { fill: #aa7150 } 
	</style>
	<g id="Layer">
		<path id="Layer" class="s0" d="m162.7 564.5c0 0 46.8 380.2-22.9 512.9 0 0 186.8-102.2 198.8-193.5 0 0 66.7-394.4-28.7-549.5 0 0-166-75.5-147.2 230.1z"/>
		<path id="Layer" class="s0" d="m193.9 341.5c-17.5 37.6-27.4 90.9-10.6 129.4 37.1 85.1 203.7 107.5 249.6 22.6 34.3-63.3 13.7-154.4-34.1-205.3-66.5-70.7-167.6-27-204.9 53.3z"/>
		<path id="Layer" class="s1" d="m792.7 1263.5c25.9-60.5 37.8-151.2-67.3-223.6l-190.4 39.4c0 0-2 107.3 39.5 184.2z"/>
		<g id="Layer">
			<path id="Layer" class="s1" d="m551.5 830.4v197.4h-147.5v-197.4z"/>
		</g>
		<path id="Layer" class="s1" d="m143.9 1113.2c41-63.5 105.5-80.7 105.5-80.7l154.6-57.3h147.5l154.5 57.3c0 0 64.5 17.2 105.5 80.7z"/>
		<path id="Layer" class="s2" d="m635.1 1263.5c-44.1-76.3-47.6-152.5-13.2-262.2l-30.3-11.2c0 0-68 64.5-170.4 75.2 0 0-53.6-22.4-65.4-72.2l-51.8 19.1c0 0-21.7 82.7-113.7 251.3z"/>
		<path id="Layer" class="s3" d="m352.6 1263.5l-27.1-259.3-21.5 8-82.5 27.7c-98.5 36.4-53.4 185-39.8 223.6z"/>
		<path id="Layer" class="s3" d="m778.2 1263.5c53.1-174.6-52.8-223.6-52.8-223.6l-133.7-49.8-72.6 273.4z"/>
		<path id="Layer" class="s4" d="m634.4 1263.5l18.1-38.8-60.8-12.2 112.1-181.7-112.1-40.7-72.6 273.4z"/>
		<path id="Layer" class="s1" d="m583.6 781.4c-6.3 14.5-15 27.9-27.1 39.6-54.2 52.1-126.5 88.6-202.5 88.6-198.2-86.6-133.9-468.1-133.9-468.1 29.7-182.6 186-182.2 186-182.2 118-5.1 225.7 50.6 243.8 174.9 7 47.6-2.2 98.7-4.6 146.4-1.7 35-6 69.8-17.2 103.2-11.4 34.1-30.3 64.8-44.5 97.6z"/>
		<path id="Layer" class="s5" d="m250.5 802c21.9 47 54.7 86.3 103.5 107.6 76 0 148.3-36.5 202.4-88.6 12.2-11.7 20.9-25.1 27.2-39.6 2.6-5.9 5.4-11.8 8.3-17.6-94.7 107.5-232.6 211.4-341.4 38.2z"/>
		<path id="Layer" class="s1" d="m604.4 642.3c0 0 15.6-65 65.5-38.2 0 0 22.6 11.5 6.3 56.1 0 0-23.7 64.2-71.9 40.7z"/>
		<g id="Layer">
			<path id="Layer" class="s1" d="m881.6 1263.5c-61.5-296.3-185.3-191.7-185.3-191.7-58.4 53.4-40.9 137.7-20.7 191.7z"/>
		</g>
		<path id="Layer" class="s0" d="m239.6 283.4c0 0 13.7 257.3 244.3 267.3 0 0 124.5 7.4 108 126.9 0 0 3.5-92.2 78-73.5 0 0 51-62.6 39.1-184.6 0 0 6.8-137.7-188.7-190 0 0-180.9-68.4-280.7 53.9z"/>
		<path id="Layer" class="s0" d="m534.9 564.5c0 0 46.9 380.2-22.8 512.9 0 0 186.7-102.2 198.7-193.5 0 0 66.7-394.4-28.7-549.5 0 0-134.2 47.7-147.2 230.1z"/>
		<path id="Layer" class="s3" d="m671.2 1263.5h227.1l-32.9-90c0 0-32.6-117.8-140-133.6 0 0-118.4 64.3-62.2 206.2z"/>
		<g id="Layer">
			<path id="Layer" class="s1" d="m306.8 1263.5c33.1-224.2-96.7-213.3-96.7-213.3-87.4 25-99.7 156.9-100.9 213.3z"/>
			<path id="Layer" class="s3" d="m314.7 1263.5l10.6-93.3c0 0 10.4-110.1-104.4-126 0 0-97.3-1-117.2 133.5l-2.5 85.8z"/>
		</g>
		<path id="Layer" class="s4" d="m233.7 1263.5h118.9l-27.1-259.3-95.5 35.7 62.2 167.6-70.2 11.2z"/>
	</g>
</svg>