<svg version="1.2" xmlns="http://www.w3.org/2000/svg" viewBox="0 0 1000 1221" width="1000" height="1221">
	<title>New Project</title>
	<style>
		.s0 { fill: #255caa } 
		.s1 { fill: #be7d5a } 
		.s2 { fill: #5d5faa } 
		.s3 { fill: #602b15 } 
		.s4 { fill: #aa7150 } 
	</style>
	<g id="Layer copy 15">
		<g id="Layer">
			<path id="Layer" class="s0" d="m113.6 1228.1h297.7c13.2-54.6 20.4-93.8 22.3-111.3 0 0 5.8-135.5-133.3-123.9 0 0-158.7-3-185.2 181.6 0.1 0 0.6 18.9-1.5 53.6z"/>
		</g>
		<g id="Layer">
			<path id="Layer" class="s1" d="m604.9 756.6v207.6h-155.1v-207.6z"/>
		</g>
		<path id="Layer" class="s1" d="m878.4 1054c-43.1-66.8-110.9-84.9-110.9-84.9l-162.6-60.2h-155.1l-162.5 60.2c0 0-67.8 18.1-111 84.9z"/>
		<path id="Layer" class="s2" d="m866.1 1228.1l44.2-87.9c-20.9-138.7-142.8-171.1-142.8-171.1l-124-45.9-141.5 48-94.4-46.6-120.3 44.5c0 0-121.9 32.4-142.8 171.1l32 87.9z"/>
		<g id="Layer">
			<path id="Layer" class="s0" d="m955.9 1228.1c-31.4-92.3-58.9-155.6-71.2-177.6 0 0-73.5-113.9-180.3-24.2 0 0-103.1 70.2-67.2 201.8z"/>
		</g>
		<g id="Layer">
			<path id="Layer" class="s3" d="m292.5 461.6c-3.5-28.3-6.6-38.1-7.3-105-0.4-31.6 5.9-79.3 45.1-83.3 54.4-5.6 71.2 88.4 74.4 129.1 4.5 56.2-9.5 116.8-20.3 171.7-3.9 19.9-3.5 59.5-25.8 69.1-19.1 8.2-15.9 11.2-25.6-3.1-23.5-34.6-35.4-138.5-40.5-178.5z"/>
			<path id="Layer" class="s1" d="m295.7 727.7c21.5 84.2 59.4 107.4 59.4 107.4l50.9 9.9c29.3-3.7 79.7-15.6 79.7-15.6 116.1-39.5 154.7-37.1 178.7-97.4 0.7-1.9 80.7-313.8 80.7-313.8 14.8-162.2-154.9-196-180.6-200.2-25.3-5.8-187-50.8-234.8 104.9 0 0-70.5 180.4-34 404.8z"/>
			<path id="Layer" class="s4" d="m627.3 759.2c-46.7 36.1-125.8 59.8-184 65.9-103.3 10.9-126.6-65.1-144.3-145.7 1.5 18.6 3.6 37.4 6.7 56.7 20.1 78.5 55.5 100.2 55.5 100.2l47.4 9.3c27.3-3.5 74.4-14.6 74.4-14.6 108.3-36.9 144.3-34.6 166.7-90.9 0.1-0.2 1.5-5.8 3.9-15.1-7.1 13.1-15.2 25.7-26.3 34.2z"/>
			<path id="Layer" class="s3" d="m248.9 230.9c7.3-11.6 19.3-9.6 25.2-24.7 5-12.6-4.9-30.8 3.8-41.7 13.2-16.4 59.3-11.8 75.8-6.5 29.2 9.5 35 25.7 66.4 11.7 26.8-12 32.4-27.8 66.5-21.7 25.1 4.4 41.9 20.5 70.5 15.8 25.2-4.1 41.4-22.1 69.7-19.9 13.7 1.1 29 3.2 39.2 14.2 11.7 12.7 4.3 18.9 10.6 32.3 8.1 17.1 0.7 12.5 16.6 23.2 9.2 6.2 23.8 1.9 32.4 10.6 22.7 23.2-3 56.6 10.5 79.2 14.4 24 55 8.6 63.4 43 3.5 14.4-9.2 26.2-6.7 39.8 3.4 18.2 10 13.2 19 27.4 13.5 21.1 18.7 37.2 1.2 62.4-19.6 28.2-26.9 30.5-26.8 69.5 0 42.4-5.3 37.7-30.6 65.5-21 23-15.4 50.2-39.1 70.7-8.7 7.6-20.3 9-30 19.8-8.6 9.6-10.5 24.1-22.5 32.9-5-49.3 23.5-96.1 25.9-145.7 2.1-42.7-0.6-124.7-25.6-160.1-30.2-43-104.6-29.1-150.6-29.1-58.2 0.1-338.4-52.2-264.8-168.6z"/>
			<path id="Layer" class="s1" d="m669.8 593.2c0 0 28.7-62.6 73.9-25.5 0 0 20.5 16-4.8 57.8 0 0-36.7 60.2-80.8 26.9z"/>
		</g>
	</g>
</svg>